# xmcd
#
# Track frame offsets:
#	150
#	15818
#	31597
#	49995
#	60657
#	73616
#	84841
#	95553
#	107922
#	120480
#	132942
#	156098
#	173413
#	194815
#	210748
#	224345
#	240550
#	256707
#	278601
#	291557
#
# Disc length: 4149 seconds
# Revision: 3
# Processed by: cddbd v1.5.2PL0 Copyright (c) Steve Scherf et al.
# Submitted via: dBpowerAMP V12.0
#
DISCID=15103314
DTITLE=Various Artist - Soul - Papa was a rollin stone [CD 3-3)
DYEAR=2002
DGENRE=Soul
TTITLE0=Barry White - You See the Trouble with Me
TTITLE1=Jermaine Jackson - Let's Get Serious
TTITLE2=The Mary Jane Girls - All Night Long
TTITLE3=Len Barry - 1-2-3
TTITLE4=Jimmy Ruffin - What Becomes of the Brokenhearted
TTITLE5=The Elgins - Heaven Must Have Sent You [
TTITLE6=The Tams - Hey Girl Don't Bother Me
TTITLE7=The Isley Brothers - This Old Heart of Mine (Is Weak for You)
TTITLE8=The Miracles - Shop Around
TTITLE9=Rare Earth - Get Ready
TTITLE10=The Temptations - Papa Was a Rollin' Stone
TTITLE11=Omar - There's Nothing Like This
TTITLE12=Will Downing - A Love Supreme
TTITLE13=Marlena Shaw - Let's Wade in the Water
TTITLE14=Yvonne Elliman - (I Don't Know Why) I Keep Hangin' On
TTITLE15=Mica Paris - My One Temptation
TTITLE16=Atlantic Starr - Secret Lovers
TTITLE17=Stephanie Mills - The Medicine Song
TTITLE18=Gene Chandler - I Fooled You This Time
TTITLE19=Gladys Knight and the Pips - Help Me Make It Through the Night
EXTD=
EXTT0=
EXTT1=
EXTT2=
EXTT3=
EXTT4=
EXTT5=
EXTT6=
EXTT7=
EXTT8=
EXTT9=
EXTT10=
EXTT11=
EXTT12=
EXTT13=
EXTT14=
EXTT15=
EXTT16=
EXTT17=
EXTT18=
EXTT19=
PLAYORDER=
